<?xml version="1.0" encoding="UTF-8"?>
<svg xmlns="http://www.w3.org/2000/svg" width="512" height="512" viewBox="0 0 512 512" role="img" aria-labelledby="title desc">
  <title id="title">Rotating arrow icon</title>
  <desc id="desc">Editable vector conversion of the supplied white icon on a transparent background.</desc>
  <g id="rotate-icon" fill="#FFFFFF">
    <path id="arrow" d="M 338.50 3.25 L 331.50 0.00 L 321.00 0.00 L 320.00 1.00 L 316.25 2.00 L 312.00 5.00 L 308.00 9.25 L 296.50 29.75 L 276.00 27.00 L 258.50 26.25 L 237.00 27.00 L 219.00 29.00 L 203.00 32.00 L 184.00 37.00 L 171.50 41.25 L 153.00 49.00 L 135.75 58.00 L 119.75 68.00 L 103.25 80.25 L 92.00 90.00 L 80.00 101.75 L 68.00 115.25 L 59.00 127.00 L 48.00 143.50 L 41.00 155.75 L 31.25 176.50 L 27.00 187.50 L 20.00 211.00 L 16.00 231.00 L 14.00 246.75 L 13.00 264.25 L 14.00 291.50 L 17.00 313.00 L 21.25 332.00 L 27.25 351.25 L 33.00 365.75 L 43.25 386.75 L 53.25 403.25 L 67.00 422.00 L 74.50 428.75 L 80.25 431.75 L 88.75 433.25 L 96.75 432.75 L 102.50 430.75 L 110.00 425.75 L 114.75 420.50 L 117.75 415.00 L 119.75 408.00 L 119.75 399.00 L 117.75 392.00 L 114.50 386.25 L 103.75 372.25 L 95.75 359.50 L 84.75 336.50 L 80.75 325.25 L 76.75 310.50 L 72.75 284.75 L 72.75 254.50 L 76.75 228.50 L 80.75 213.75 L 85.75 200.00 L 92.75 185.00 L 98.75 174.25 L 108.75 159.50 L 119.75 146.25 L 135.50 130.75 L 153.25 117.00 L 170.25 106.75 L 192.50 96.75 L 208.00 91.75 L 226.50 87.75 L 243.25 85.75 L 265.00 85.75 L 265.50 86.50 L 257.00 102.00 L 256.00 105.75 L 256.00 113.50 L 258.25 120.00 L 262.00 125.25 L 266.25 128.75 L 272.75 131.50 L 281.50 132.00 L 378.25 130.25 L 386.25 128.75 L 391.50 125.75 L 396.50 120.50 L 399.75 113.75 L 400.50 106.25 L 398.75 99.00 L 345.50 10.50 Z"/>
    <circle id="dot-1" cx="468.81" cy="269.77" r="29.75"/>
    <circle id="dot-2" cx="451.56" cy="354.08" r="29.74"/>
    <circle id="dot-3" cx="401.33" cy="425.02" r="29.74"/>
    <circle id="dot-4" cx="327.04" cy="470.16" r="29.74"/>
    <circle id="dot-5" cx="240.90" cy="481.83" r="29.74"/>
    <circle id="dot-6" cx="157.22" cy="458.26" r="29.74"/>
  </g>
</svg>